<svg width="274" height="165" viewBox="0 0 274 165" fill="none" xmlns="http://www.w3.org/2000/svg">
<path d="M11.1388 155.082C14.9298 156.868 18.0182 161.507 19.3063 164.939C13.7003 161.306 7.09897 158.552 0 157.873C5.59135 154.114 9.13352 148.57 11.8706 143C12.7781 146.797 13.2465 151.549 11.1388 155.082Z" fill="#7FA03E"/>
<path d="M10.9197 155.362C139.067 119.659 174.748 92.0458 173.865 71.1803C173.156 54.3374 148.366 33.2647 133.268 37.5163C122.028 40.6778 114.713 58.6544 118.736 71.987C126.051 96.2974 172.502 110.099 205.349 97.7909C224.982 90.4324 237.356 72.5648 241.803 66.4817C248.322 57.5534 252.258 49.0502 259.344 33.7553C265.482 20.4881 269.908 9.09603 272.895 0.843565" stroke="#7FA03E" stroke-width="2" stroke-miterlimit="10"/>
</svg>
