<svg width="1555" height="980" viewBox="0 0 1555 980" fill="none" preserveAspectRatio="none"
     xmlns="http://www.w3.org/2000/svg">
    <path d="M1547.98 981.492C1542.39 823.037 1426.56 772.241 1316.75 756.297C1193.06 738.342 1072.05 763.869 981.358 732.867C874.272 696.257 987.848 641.827 899.152 590.422C779.26 520.941 490.286 573.182 382.435 508.915C280.5 448.17 472.171 361.83 340.118 314.042C277.694 291.462 230.352 309.101 166.069 285.887C54.2083 245.499 160.346 178.549 83.8702 84.1076C59.4316 53.9429 25.0056 31.6344 1.00008 18.0001"
          stroke="#7FA03E" stroke-width="8" stroke-miterlimit="10"/>
    <path d="M6.3538 981.744C-0.294175 816.521 117.195 767.919 231.128 755.475C359.457 741.463 488.405 772.745 581.084 743.848C690.522 709.723 567.091 648.549 656.07 598.272C776.347 530.319 1083.59 595.919 1191.64 532.948C1293.77 473.427 1085.91 375.948 1220.65 331.108C1284.35 309.922 1335.4 330.15 1401 308.373C1515.14 270.487 1398.53 196.525 1471.29 100.849C1494.55 70.2905 1528.9 48.3164 1553 35.0001"
          stroke="#7FA03E" stroke-width="8" stroke-miterlimit="10"/>
</svg>
